inDegrees=no
num_controls=7
num_derivatives=13
num_iterations=125
num_multipliers=7
num_parameters=0
num_slacks=7
num_states=26
objective=4.279723
objective_accelerations=0.484686
objective_balance=0.052511
objective_effort=0.597290
objective_height=3.073582
objective_ligament=0.071654
solver_duration=1276.450952
status=Solve_Succeeded
success=true
DataType=double
version=3
OpenSimVersion=4.4-2022-07-23-0e9fedc
endheader
time	/jointset/ground_pelvis/pelvis_tilt/value	/jointset/ground_pelvis/pelvis_tx/value	/jointset/ground_pelvis/pelvis_ty/value	/jointset/hip_l/hip_flexion_l/value	/jointset/hip_l/hip_adduction_l/value	/jointset/hip_l/hip_rotation_l/value	/jointset/back/lumbar_extension/value	/jointset/patellofemoral_l/patellar_flexion_l/value	/jointset/knee_l/knee_flexion_l/value	/jointset/knee_l/knee_adduction_l/value	/jointset/knee_l/knee_rotation_l/value	/jointset/ankle_l/ankle_angle_l/value	/jointset/subtalar_l/subtalar_angle_l/value	/jointset/ground_pelvis/pelvis_tilt/speed	/jointset/ground_pelvis/pelvis_tx/speed	/jointset/ground_pelvis/pelvis_ty/speed	/jointset/hip_l/hip_flexion_l/speed	/jointset/hip_l/hip_adduction_l/speed	/jointset/hip_l/hip_rotation_l/speed	/jointset/back/lumbar_extension/speed	/jointset/patellofemoral_l/patellar_flexion_l/speed	/jointset/knee_l/knee_flexion_l/speed	/jointset/knee_l/knee_adduction_l/speed	/jointset/knee_l/knee_rotation_l/speed	/jointset/ankle_l/ankle_angle_l/speed	/jointset/subtalar_l/subtalar_angle_l/speed	/forceset/tau_hip_flexion_l	/forceset/tau_hip_adduction_l	/forceset/tau_hip_rotation_l	/forceset/tau_knee_flexion_l	/forceset/tau_ankle_angle_l	/forceset/tau_subtalar_angle_l	/forceset/tau_lumbar_extension	lambda_cid13_p0	lambda_cid13_p1	lambda_cid13_p2	lambda_cid13_p3	lambda_cid13_p4	lambda_cid13_p5	lambda_cid14_p0	/jointset/ground_pelvis/pelvis_tilt/accel	/jointset/ground_pelvis/pelvis_tx/accel	/jointset/ground_pelvis/pelvis_ty/accel	/jointset/hip_l/hip_flexion_l/accel	/jointset/hip_l/hip_adduction_l/accel	/jointset/hip_l/hip_rotation_l/accel	/jointset/back/lumbar_extension/accel	/jointset/patellofemoral_l/patellar_flexion_l/accel	/jointset/knee_l/knee_flexion_l/accel	/jointset/knee_l/knee_adduction_l/accel	/jointset/knee_l/knee_rotation_l/accel	/jointset/ankle_l/ankle_angle_l/accel	/jointset/subtalar_l/subtalar_angle_l/accel	gamma_cid13_p0	gamma_cid13_p1	gamma_cid13_p2	gamma_cid13_p3	gamma_cid13_p4	gamma_cid13_p5	gamma_cid14_p0
0.5	-0.09126085785308365	-0.0291734757084628	0.7506134501089395	1.096597289620669	-0.3247127382053578	-0.02960735023246727	-0.7933730828043216	1.190784935638451	1.190784935638536	-0.03834672871768016	-0.1745193185856257	0.2735434884131964	0.06867777222950058	-0.0880742006561199	-0.09916826961089861	-0.652886384567774	2.044452698647577	-0.01303309362034327	0.6250467227868197	-0.798536556755081	2.456804012872844	2.456804012873129	0.3176444982878772	-6.775841334673174e-05	0.6719280839416019	0.2705863963017842	-0.2699212617562338	0.01743078212454954	-0.007145526220554138	-0.3077132782989631	0.04517384948162007	0.04038426425825942	0.3269572236164302	-28.36385975692478	-12.85751244491263	1.920993567951868	-8.12074287239667	-692.835348971095	-72.4451188784998	-1.141755240058381	0.5457722000694653	0.749500749180339	-0.3823530674739401	-1.643251006016392	0.2765720221824235	-0.7236560229626493	1.959485498330595	-2.113770034974026	-2.113770034973599	-0.164658852534283	0.03258405915201927	-1.136848211239445	0.1813148985417302	-2.908785273576378e-07	-1.452354964551059e-06	1.15536558090413e-06	-1.046571159535091e-07	-3.282547400260764e-07	-4.95688701190138e-07	-3.008656024641617e-07
0.51	-0.09211402749966911	-0.03012779670274377	0.7440670065506418	1.11695688657815	-0.324830259995308	-0.02339349648475905	-0.8012600059353651	1.215243776478118	1.215243776477958	-0.03518012390923679	-0.1745198993847296	0.280204426407948	0.07139071016043688	-0.08253242905303756	-0.09170775892216781	-0.6562473954386353	2.02720557134063	-0.01048421761328608	0.6176802175030786	-0.778797566053851	2.434638358763269	2.434638358763414	0.3156658906156064	-5.025504245551388e-05	0.6601526406961254	0.2719353197932529	-0.2765700243086422	0.01755100732219681	-0.006975875242516628	-0.314253048835445	0.04280774017809072	0.03977503146632512	0.3338365941376013	-29.55433576747989	-12.22554282077567	1.638696760471001	-7.542253224950928	-699.4513839607637	-72.29686313038513	-0.7558058178888453	0.5624498154479103	0.7425331588248495	-0.2897996014716192	-1.804640550625837	0.24200432307896	-0.7500205867941292	1.98868136596248	-2.316772742763288	-2.316772742784459	-0.2162767634902029	-0.01373819016283022	-1.213986783652151	0.1018755903444315	-2.742273582187757e-07	-1.305157260358333e-06	1.176355212129526e-06	-9.175853571326641e-08	-3.09061931713666e-07	-3.936144390252619e-07	-2.898139554047221e-07
0.52	-0.09291096539522198	-0.03100787120411642	0.7374915879827193	1.137136172871038	-0.3249227012385661	-0.01725468235102734	-0.8089480240574085	1.239471198847927	1.239471198847524	-0.03203366818531128	-0.174520319483375	0.2867443910897546	0.07411517622946701	-0.07682785044914056	-0.08431897102923434	-0.658681386492681	2.008390565730002	-0.008016984281767727	0.6100387999907683	-0.7587555549548849	2.410520318901133	2.410520318901136	0.3136146813866706	-3.561832038426618e-05	0.6477334213526326	0.2728920239205234	-0.2832187868610638	0.01767123251985353	-0.006806224264606822	-0.3207928193719321	0.04044163087456636	0.03916579867440827	0.3407159646587597	-30.74614970070632	-11.59943677010419	1.364300584537141	-7.019760813426868	-706.0758443643649	-72.20668555854562	-0.4504671934559282	0.5783336002323873	0.7351561900208811	-0.1969491041108358	-1.956826666752517	0.2602434870746556	-0.7786384686764287	2.020089577877826	-2.504247185486051	-2.504247185486207	-0.1791791638672986	0.03201072938805734	-1.265603430842723	0.10287102570211	-2.511499046879119e-07	-1.191294204771508e-06	1.110341075568386e-06	-8.906462206367777e-08	-2.84411247440968e-07	-3.227108234143412e-07	-2.712466087372957e-07
0.53	-0.09365012451728151	-0.03181448489063274	0.7308964831810197	1.157119638040101	-0.3249908150531107	-0.01119356566616558	-0.8164342178524541	1.263447890524664	1.263447890524393	-0.02890801808576743	-0.1745205134867547	0.2931571115145082	0.07684731977935236	-0.07098196890218576	-0.07702200616812095	-0.6601821810227614	1.98804801217341	-0.005622607817684828	0.6021413102354741	-0.7384465510150743	2.384507330677145	2.384507330677217	0.3114971913229284	-1.178322142051577e-05	0.6347166802155555	0.2734649333080431	-0.2896467490558172	0.01782286791618187	-0.006632989923494565	-0.327436670926024	0.03806062610672566	0.03835410635194404	0.3473621686501784	-31.95924767799906	-10.86409004963423	1.052400683555146	-6.369779333147016	-712.6607046991372	-71.93736606867101	-0.2285909559576087	0.5909938679146767	0.7242131201370542	-0.1030899964662969	-2.11116359749859	0.2264120828133946	-0.8020492525393615	2.041803757876472	-2.696375207388781	-2.69637520737854	-0.2309550788597258	-0.01353579954312499	-1.333859861304137	0.02379180058012762	-2.12623516072036e-07	-9.86091093363189e-07	1.020036451520475e-06	-7.998705110616692e-08	-2.471339442727393e-07	-2.130146726978725e-07	-2.393406759682815e-07
0.54	-0.09433016913667544	-0.03254867963134189	0.7242910813602174	1.176892038894117	-0.3250355096316667	-0.005212772883574416	-0.8237162220169334	1.287155142205854	1.287155142205719	-0.02580412711711265	-0.1745206902790881	0.2994368344466579	0.07958305060417374	-0.06500494991572138	-0.06983518186780126	-0.6607407903132331	1.966177702721374	-0.003333137084070555	0.5939740195368417	-0.7179176288415078	2.356632319791808	2.356632319791947	0.309262855209907	-3.217611020314797e-05	0.6211339228319205	0.2736094789076935	-0.2960747112505855	0.01797450331250909	-0.006459755582424074	-0.3340805224801192	0.035679621338887	0.03754241402948005	0.3540083726415842	-33.17483295850073	-10.13385499834482	0.7476523983977084	-5.770632068250681	-719.261466233049	-71.72101724701872	-0.09250710503553998	0.604561088134299	0.713128077862152	-0.008512056189110096	-2.262377845841294	0.2392623409809332	-0.8325986573440405	2.064073224628961	-2.876651717756277	-2.876651717756249	-0.202548373723144	0.02316513183879844	-1.37880668015432	0.01719826812830393	-1.570046886386997e-07	-6.798308989183227e-07	9.028572455723055e-07	-6.384671036116758e-08	-1.958867648796681e-07	-6.039912143909486e-08	-1.926771585762337e-07
